<svg width="209" height="123" viewBox="0 0 209 123" fill="none" xmlns="http://www.w3.org/2000/svg">
<path d="M93.9475 121.078C92.6574 116.885 91.1913 112.575 89.5492 108.149C88.0245 103.723 86.4998 99.2969 84.975 94.8707H37.4735C35.9487 99.2969 34.3653 103.723 32.7233 108.149C31.1986 112.575 29.7911 116.885 28.5009 121.078H0C4.57422 108.033 8.91387 95.9773 13.0189 84.9119C17.124 73.8466 21.1118 63.4219 24.9823 53.6378C28.9701 43.8537 32.8406 34.5938 36.5938 25.858C40.4643 17.0057 44.4521 8.38636 48.5572 0H74.771C78.7588 8.38636 82.6879 17.0057 86.5584 25.858C90.4289 34.5938 94.2994 43.8537 98.1699 53.6378C102.158 63.4219 106.204 73.8466 110.309 84.9119C114.414 95.9773 118.754 108.033 123.328 121.078H93.9475ZM61.0483 27.4304C60.4619 29.1776 59.5822 31.5653 58.4093 34.5937C57.2365 37.6222 55.8876 41.1165 54.3629 45.0767C52.8382 49.0369 51.1375 53.4048 49.2609 58.1804C47.5016 62.956 45.6836 67.9645 43.807 73.206H78.4655C76.5889 67.9645 74.771 62.956 73.0117 58.1804C71.2523 53.4048 69.5517 49.0369 67.9096 45.0767C66.3849 41.1165 65.0361 37.6222 63.8632 34.5937C62.6903 31.5653 61.752 29.1776 61.0483 27.4304Z" fill="#FFEE90"/>
<path d="M170.823 102.908C173.403 102.908 175.866 102.849 178.212 102.733C180.558 102.616 182.434 102.442 183.842 102.209V82.4659C182.786 82.233 181.203 82 179.092 81.7671C176.98 81.5341 175.045 81.4176 173.286 81.4176C170.823 81.4176 168.477 81.5923 166.249 81.9418C164.137 82.1747 162.261 82.6989 160.619 83.5142C158.977 84.3296 157.687 85.4361 156.748 86.8338C155.81 88.2315 155.341 89.9787 155.341 92.0753C155.341 96.152 156.69 99.0057 159.387 100.636C162.202 102.151 166.014 102.908 170.823 102.908ZM168.712 26.7315C176.453 26.7315 182.903 27.6051 188.064 29.3523C193.225 31.0994 197.33 33.6037 200.379 36.8651C203.546 40.1264 205.775 44.0866 207.065 48.7457C208.355 53.4048 209 58.5881 209 64.2955V118.457C205.247 119.273 200.027 120.205 193.342 121.253C186.657 122.418 178.564 123 169.063 123C163.082 123 157.628 122.476 152.702 121.428C147.893 120.379 143.729 118.69 140.211 116.361C136.692 113.915 133.994 110.77 132.118 106.926C130.241 103.082 129.303 98.3651 129.303 92.7742C129.303 87.4162 130.359 82.8736 132.47 79.1463C134.698 75.419 137.63 72.4489 141.266 70.2358C144.902 68.0227 149.066 66.4503 153.757 65.5185C158.449 64.4702 163.316 63.946 168.36 63.946C171.761 63.946 174.752 64.1207 177.332 64.4702C180.03 64.7031 182.2 65.0526 183.842 65.5185V63.0724C183.842 58.6463 182.493 55.0938 179.795 52.4148C177.098 49.7358 172.406 48.3963 165.721 48.3963C161.264 48.3963 156.866 48.7457 152.526 49.4446C148.186 50.027 144.433 50.9006 141.266 52.0653L137.924 31.0994C139.448 30.6335 141.325 30.1676 143.553 29.7017C145.899 29.1193 148.421 28.6534 151.118 28.304C153.816 27.8381 156.631 27.4886 159.563 27.2557C162.613 26.9063 165.662 26.7315 168.712 26.7315Z" fill="#FFEE90"/>
</svg>
