<svg width="699" height="437" viewBox="0 0 699 437" fill="none" xmlns="http://www.w3.org/2000/svg">
<path d="M0 259.738C0 224.45 6.56608 193.47 19.6982 166.799C33.2408 140.127 51.5027 119.611 74.484 105.249C97.4653 90.8878 123.114 83.707 151.43 83.707C175.643 83.707 196.777 88.631 214.834 98.4788C233.301 108.327 247.459 121.252 257.308 137.255V88.631H362.571V432.076H257.308V383.452C247.049 399.455 232.686 412.38 214.218 422.228C196.162 432.076 175.027 437 150.815 437C122.909 437 97.4653 429.819 74.484 415.458C51.5027 400.686 33.2408 379.964 19.6982 353.293C6.56608 326.211 0 295.026 0 259.738ZM257.308 260.354C257.308 234.092 249.922 213.371 235.148 198.189C220.785 183.007 203.138 175.415 182.209 175.415C161.279 175.415 143.428 183.007 128.654 198.189C114.291 212.961 107.109 233.477 107.109 259.738C107.109 285.999 114.291 306.926 128.654 322.518C143.428 337.7 161.279 345.292 182.209 345.292C203.138 345.292 220.785 337.7 235.148 322.518C249.922 307.336 257.308 286.615 257.308 260.354Z" fill="#FFF9DB" fill-opacity="0.26"/>
<path d="M707.728 355.755H546.448L520.594 432.076H410.407L566.762 0H688.645L845 432.076H733.582L707.728 355.755ZM680.643 274.51L627.088 116.328L574.149 274.51H680.643Z" fill="#FFF9DB" fill-opacity="0.26"/>
</svg>
