<svg width="1" height="559" viewBox="0 0 1 559" fill="none" xmlns="http://www.w3.org/2000/svg">
<line y1="-0.25" x2="25.7073" y2="-0.25" transform="matrix(-4.37114e-08 1 -0.998274 -0.0587221 0 0)" stroke="#535353" stroke-width="0.5"/>
<line y1="-0.25" x2="25.7073" y2="-0.25" transform="matrix(-4.37114e-08 1 -0.998274 -0.0587221 0 48.3901)" stroke="#535353" stroke-width="0.5"/>
<line y1="-0.25" x2="25.7073" y2="-0.25" transform="matrix(-4.37114e-08 1 -0.998274 -0.0587221 -7.62939e-06 96.7805)" stroke="#535353" stroke-width="0.5"/>
<line y1="-0.25" x2="25.7073" y2="-0.25" transform="matrix(-4.37114e-08 1 -0.998274 -0.0587221 -7.62939e-06 145.171)" stroke="#535353" stroke-width="0.5"/>
<line y1="-0.25" x2="25.7073" y2="-0.25" transform="matrix(-4.37114e-08 1 -0.998274 -0.0587221 -7.62939e-06 193.561)" stroke="#535353" stroke-width="0.5"/>
<line y1="-0.25" x2="25.7073" y2="-0.25" transform="matrix(-4.37114e-08 1 -0.998274 -0.0587221 -7.62939e-06 241.951)" stroke="#535353" stroke-width="0.5"/>
<line y1="-0.25" x2="25.7073" y2="-0.25" transform="matrix(-4.37114e-08 1 -0.998274 -0.0587221 -1.52588e-05 290.342)" stroke="#535353" stroke-width="0.5"/>
<line y1="-0.25" x2="25.7073" y2="-0.25" transform="matrix(-4.37114e-08 1 -0.998274 -0.0587221 -1.52588e-05 338.732)" stroke="#535353" stroke-width="0.5"/>
<line y1="-0.25" x2="25.7073" y2="-0.25" transform="matrix(-4.37114e-08 1 -0.998274 -0.0587221 -1.52588e-05 387.122)" stroke="#535353" stroke-width="0.5"/>
<line y1="-0.25" x2="25.7073" y2="-0.25" transform="matrix(-4.37114e-08 1 -0.998274 -0.0587221 -1.52588e-05 435.512)" stroke="#535353" stroke-width="0.5"/>
<line y1="-0.25" x2="25.7073" y2="-0.25" transform="matrix(-4.37114e-08 1 -0.998274 -0.0587221 -2.28882e-05 483.902)" stroke="#535353" stroke-width="0.5"/>
<line y1="-0.25" x2="25.7073" y2="-0.25" transform="matrix(-4.37114e-08 1 -0.998274 -0.0587221 -2.28882e-05 532.292)" stroke="#535353" stroke-width="0.5"/>
</svg>
