<svg width="183" height="28" viewBox="0 0 183 28" fill="none" xmlns="http://www.w3.org/2000/svg">
<path d="M13.12 27L12.2441 27.4826L12.5292 28H13.12V27ZM7.864 17.46L8.73987 16.9774L8.45478 16.46H7.864V17.46ZM6.388 17.46V16.46H5.388V17.46H6.388ZM6.388 27V28H7.388V27H6.388ZM0.232 27H-0.768V28H0.232V27ZM0.232 1.728V0.727999H-0.768V1.728H0.232ZM15.64 2.772L15.1928 3.66645L15.1989 3.66945L15.64 2.772ZM18.808 5.652L17.9387 6.14632L17.943 6.15372L18.808 5.652ZM18.412 14.184L17.6032 13.5958L17.5963 13.6056L18.412 14.184ZM14.236 16.992L13.9498 16.0338L12.7322 16.3975L13.372 17.4955L14.236 16.992ZM20.068 27V28H21.8081L20.932 26.4965L20.068 27ZM6.388 13.104H5.388V14.104H6.388V13.104ZM12.724 12.276L12.0321 11.554L12.0244 11.5614L12.0169 11.5689L12.724 12.276ZM12.724 7.668L12.0169 8.37511L12.0244 8.38263L12.0321 8.38999L12.724 7.668ZM6.388 6.84V5.84H5.388V6.84H6.388ZM13.9959 26.5174L8.73987 16.9774L6.98813 17.9426L12.2441 27.4826L13.9959 26.5174ZM7.864 16.46H6.388V18.46H7.864V16.46ZM5.388 17.46V27H7.388V17.46H5.388ZM6.388 26H0.232V28H6.388V26ZM1.232 27V1.728H-0.768V27H1.232ZM0.232 2.728H10.564V0.727999H0.232V2.728ZM10.564 2.728C12.4429 2.728 13.973 3.05652 15.1928 3.66643L16.0872 1.87757C14.523 1.09548 12.6691 0.727999 10.564 0.727999V2.728ZM15.1989 3.66945C16.4575 4.28809 17.3535 5.11717 17.9387 6.1463L19.6773 5.1577C18.8705 3.73883 17.6545 2.64791 16.0811 1.87455L15.1989 3.66945ZM17.943 6.15372C18.5441 7.19023 18.852 8.35896 18.852 9.684H20.852C20.852 8.03303 20.4639 6.51377 19.673 5.15028L17.943 6.15372ZM18.852 9.684C18.852 11.1593 18.4351 12.452 17.6033 13.5958L19.2207 14.7722C20.3089 13.276 20.852 11.5687 20.852 9.684H18.852ZM17.5963 13.6056C16.813 14.7102 15.6264 15.533 13.9498 16.0338L14.5222 17.9502C16.5416 17.347 18.139 16.2978 19.2277 14.7624L17.5963 13.6056ZM13.372 17.4955L19.204 27.5035L20.932 26.4965L15.1 16.4885L13.372 17.4955ZM20.068 26H13.12V28H20.068V26ZM6.388 14.104H10.204V12.104H6.388V14.104ZM10.204 14.104C11.4789 14.104 12.6218 13.7924 13.4311 12.9831L12.0169 11.5689C11.7222 11.8636 11.1851 12.104 10.204 12.104V14.104ZM13.4159 12.998C14.2376 12.2105 14.588 11.1405 14.588 9.936H12.588C12.588 10.7475 12.3624 11.2375 12.0321 11.554L13.4159 12.998ZM14.588 9.936C14.588 8.76307 14.228 7.72427 13.4159 6.94601L12.0321 8.38999C12.372 8.71573 12.588 9.18893 12.588 9.936H14.588ZM13.4311 6.96089C12.6218 6.15162 11.4789 5.84 10.204 5.84V7.84C11.1851 7.84 11.7222 8.08038 12.0169 8.37511L13.4311 6.96089ZM10.204 5.84H6.388V7.84H10.204V5.84ZM5.388 6.84V13.104H7.388V6.84H5.388ZM48.1244 18.432V19.432H49.0156L49.1178 18.5466L48.1244 18.432ZM34.1924 18.432V17.432H33.1125L33.1953 18.5087L34.1924 18.432ZM35.3804 21.312L34.6858 22.0314L34.6984 22.0436L34.7114 22.0553L35.3804 21.312ZM41.2124 20.34V19.34H40.5734L40.3049 19.9199L41.2124 20.34ZM47.7644 20.34L48.7335 20.5867L49.0508 19.34H47.7644V20.34ZM45.9284 23.904L45.1629 23.2603L45.1544 23.2708L45.9284 23.904ZM42.6524 26.388L43.0662 27.2984L42.6524 26.388ZM32.9684 26.028L32.4886 26.9054L32.4886 26.9054L32.9684 26.028ZM29.3684 22.428L30.2432 21.9435L30.2432 21.9435L29.3684 22.428ZM29.3324 11.484L28.4575 10.9995L28.4519 11.0099L29.3324 11.484ZM32.9324 7.884L33.4122 8.76137L33.4122 8.76137L32.9324 7.884ZM43.4084 7.848L42.9334 8.72802L42.9334 8.72802L43.4084 7.848ZM46.9364 11.34L46.0622 11.8257L46.0681 11.8361L46.9364 11.34ZM41.9324 15.012V16.012H42.9324V15.012H41.9324ZM40.8524 12.492L41.5073 11.7363L41.5073 11.7363L40.8524 12.492ZM35.5244 12.456L34.8842 11.6878L34.8778 11.6931L34.8714 11.6986L35.5244 12.456ZM34.2284 15.012L33.2398 14.8616L33.0647 16.012H34.2284V15.012ZM47.2324 16.632C47.2324 17.1664 47.199 17.7281 47.131 18.3174L49.1178 18.5466C49.1938 17.8879 49.2324 17.2496 49.2324 16.632H47.2324ZM48.1244 17.432H34.1924V19.432H48.1244V17.432ZM33.1953 18.5087C33.3044 19.9272 33.767 21.1443 34.6858 22.0314L36.075 20.5926C35.6017 20.1357 35.2723 19.4328 35.1894 18.3553L33.1953 18.5087ZM34.7114 22.0553C35.6277 22.88 36.747 23.284 38.0084 23.284V21.284C37.2058 21.284 36.573 21.04 36.0493 20.5687L34.7114 22.0553ZM38.0084 23.284C38.9174 23.284 39.7574 23.0914 40.4801 22.6529C41.2075 22.2116 41.7487 21.5618 42.1198 20.7601L40.3049 19.9199C40.0761 20.4142 39.7833 20.7364 39.4426 20.9431C39.0974 21.1526 38.6354 21.284 38.0084 21.284V23.284ZM41.2124 21.34H47.7644V19.34H41.2124V21.34ZM46.7953 20.0933C46.4969 21.2654 45.9554 22.3181 45.163 23.2604L46.6937 24.5476C47.6774 23.3779 48.3598 22.0546 48.7335 20.5867L46.7953 20.0933ZM45.1544 23.2708C44.3937 24.2006 43.4278 24.9371 42.2386 25.4776L43.0662 27.2984C44.5169 26.6389 45.7351 25.7194 46.7023 24.5372L45.1544 23.2708ZM42.2386 25.4776C41.0639 26.0116 39.7316 26.288 38.2244 26.288V28.288C39.9812 28.288 41.6008 27.9644 43.0662 27.2984L42.2386 25.4776ZM38.2244 26.288C36.4029 26.288 34.8196 25.9006 33.4482 25.1506L32.4886 26.9054C34.1892 27.8354 36.1098 28.288 38.2244 28.288V26.288ZM33.4482 25.1506C32.0816 24.4033 31.0172 23.341 30.2432 21.9435L28.4936 22.9125C29.4476 24.635 30.7831 25.9727 32.4886 26.9054L33.4482 25.1506ZM30.2432 21.9435C29.4743 20.5553 29.0724 18.9036 29.0724 16.956H27.0724C27.0724 19.1844 27.5344 21.1807 28.4936 22.9125L30.2432 21.9435ZM29.0724 16.956C29.0724 15.0039 29.4642 13.3484 30.2128 11.9581L28.4519 11.0099C27.5205 12.7396 27.0724 14.7321 27.0724 16.956H29.0724ZM30.2072 11.9685C30.9812 10.571 32.0456 9.5087 33.4122 8.76137L32.4526 7.00663C30.7471 7.9393 29.4116 9.27704 28.4576 10.9995L30.2072 11.9685ZM33.4122 8.76137C34.7818 8.01236 36.3767 7.624 38.2244 7.624V5.624C36.0881 5.624 34.1549 6.07564 32.4526 7.00663L33.4122 8.76137ZM38.2244 7.624C40.0247 7.624 41.5856 8.00063 42.9334 8.72802L43.8833 6.96798C42.2071 6.06337 40.3121 5.624 38.2244 5.624V7.624ZM42.9334 8.72802C44.2763 9.45272 45.3143 10.4793 46.0622 11.8256L47.8105 10.8544C46.8785 9.17668 45.5645 7.87528 43.8833 6.96798L42.9334 8.72802ZM46.0681 11.8361C46.833 13.1747 47.2324 14.7623 47.2324 16.632H49.2324C49.2324 14.4697 48.7678 12.5293 47.8046 10.8439L46.0681 11.8361ZM42.9324 15.012C42.9324 13.7013 42.4718 12.5722 41.5073 11.7363L40.1974 13.2477C40.673 13.6598 40.9324 14.2107 40.9324 15.012H42.9324ZM41.5073 11.7363C40.5812 10.9337 39.4387 10.556 38.1524 10.556V12.556C39.026 12.556 39.6836 12.8023 40.1974 13.2477L41.5073 11.7363ZM38.1524 10.556C36.9117 10.556 35.8024 10.9226 34.8842 11.6878L36.1646 13.2242C36.6863 12.7894 37.329 12.556 38.1524 12.556V10.556ZM34.8714 11.6986C33.9579 12.4861 33.4356 13.5746 33.2398 14.8616L35.217 15.1624C35.3571 14.2414 35.6988 13.6259 36.1773 13.2134L34.8714 11.6986ZM34.2284 16.012H41.9324V14.012H34.2284V16.012ZM60.552 26.388L60.9536 25.4722L60.9536 25.4722L60.552 26.388ZM57.312 23.94L56.5119 24.54L56.5187 24.5488L57.312 23.94ZM55.98 20.412V19.412H54.9032L54.9827 20.4859L55.98 20.412ZM62.064 20.412L63.0587 20.3091L62.9659 19.412H62.064V20.412ZM63.036 22.104L63.636 21.304L63.636 21.304L63.036 22.104ZM66.924 22.32L67.5007 23.137L67.5095 23.1307L66.924 22.32ZM66.672 19.872L66.2392 20.7735L66.2541 20.7807L66.2692 20.7873L66.672 19.872ZM63.756 18.936L63.9985 17.9659L63.9909 17.9639L63.9832 17.9622L63.756 18.936ZM60.156 17.892L59.7846 18.8205L59.7947 18.8245L59.8048 18.8283L60.156 17.892ZM57.672 16.128L56.9111 16.7769L56.9159 16.7826L56.9208 16.7881L57.672 16.128ZM57.564 9.72L56.7351 9.16052L56.7319 9.1653L57.564 9.72ZM60.372 7.452L59.9675 6.53744L59.9609 6.54041L60.372 7.452ZM70.74 8.496L70.085 9.25171L70.0912 9.25702L70.74 8.496ZM73.26 13.464V14.464H74.3701L74.2545 13.3599L73.26 13.464ZM67.572 13.464L66.5813 13.6006L66.7004 14.464H67.572V13.464ZM66.636 11.808L66.0068 12.5852L66.0156 12.5924L66.0245 12.5993L66.636 11.808ZM62.964 11.628L63.5305 12.452L63.5475 12.4404L63.564 12.428L62.964 11.628ZM63.288 14.04L62.8552 14.9415L62.8621 14.9448L62.8689 14.948L63.288 14.04ZM66.168 14.904L66.4178 13.9357L66.4014 13.9315L66.3849 13.9278L66.168 14.904ZM69.804 16.056L69.4244 16.9812L69.4347 16.9854L69.445 16.9893L69.804 16.056ZM72.252 17.856L71.4819 18.494L71.4919 18.506L71.5021 18.5176L72.252 17.856ZM73.368 21.168H74.368V21.1594L74.3678 21.1508L73.368 21.168ZM72.36 24.336L71.5476 23.7528L71.5448 23.7568L72.36 24.336ZM69.516 26.496L69.1263 25.575L69.1199 25.5778L69.516 26.496ZM65.232 26.288C63.5946 26.288 62.175 26.0079 60.9536 25.4722L60.1503 27.3038C61.6649 27.9681 63.3653 28.288 65.232 28.288V26.288ZM60.9536 25.4722C59.7168 24.9298 58.7803 24.2108 58.1053 23.3312L56.5187 24.5488C57.4276 25.7332 58.6511 26.6462 60.1503 27.3038L60.9536 25.4722ZM58.112 23.34C57.4327 22.4344 57.0589 21.4403 56.9772 20.3381L54.9827 20.4859C55.0931 21.9757 55.6072 23.3336 56.512 24.54L58.112 23.34ZM55.98 21.412H62.064V19.412H55.98V21.412ZM61.0693 20.5149C61.1709 21.4971 61.6443 22.3103 62.436 22.904L63.636 21.304C63.2756 21.0337 63.1011 20.7189 63.0587 20.3091L61.0693 20.5149ZM62.436 22.904C63.2128 23.4866 64.141 23.752 65.16 23.752V21.752C64.4989 21.752 64.0112 21.5854 63.636 21.304L62.436 22.904ZM65.16 23.752C66.0307 23.752 66.8554 23.5925 67.5007 23.137L66.3473 21.503C66.1766 21.6235 65.8253 21.752 65.16 21.752V23.752ZM67.5095 23.1307C68.1685 22.6547 68.572 21.972 68.572 21.132H66.572C66.572 21.252 66.5434 21.3613 66.3385 21.5093L67.5095 23.1307ZM68.572 21.132C68.572 20.6608 68.4457 20.2028 68.1607 19.8038C67.8815 19.4129 67.4955 19.1418 67.0747 18.9567L66.2692 20.7873C66.4485 20.8662 66.5124 20.9371 66.5332 20.9662C66.5482 20.9872 66.572 21.0272 66.572 21.132H68.572ZM67.1047 18.9705C66.4083 18.6362 65.3536 18.3046 63.9985 17.9659L63.5134 19.9061C64.8464 20.2394 65.7357 20.5318 66.2392 20.7735L67.1047 18.9705ZM63.9832 17.9622C62.5686 17.6321 61.4133 17.2955 60.5071 16.9557L59.8048 18.8283C60.8187 19.2085 62.0633 19.5679 63.5287 19.9098L63.9832 17.9622ZM60.5274 16.9635C59.7162 16.6391 59.0175 16.1442 58.4231 15.4679L56.9208 16.7881C57.7184 17.6958 58.6757 18.3769 59.7846 18.8205L60.5274 16.9635ZM58.4328 15.4791C57.9298 14.8893 57.628 14.0493 57.628 12.852H55.628C55.628 14.3907 56.0221 15.7347 56.9111 16.7769L58.4328 15.4791ZM57.628 12.852C57.628 11.8924 57.8843 11.0423 58.396 10.2747L56.7319 9.1653C55.9956 10.2697 55.628 11.5076 55.628 12.852H57.628ZM58.3928 10.2795C58.9213 9.49652 59.7009 8.85164 60.7831 8.36359L59.9609 6.54041C58.5951 7.15636 57.5026 8.02348 56.7351 9.16053L58.3928 10.2795ZM60.7765 8.36653C61.8696 7.88305 63.2017 7.624 64.8 7.624V5.624C62.9902 5.624 61.3704 5.91694 59.9675 6.53746L60.7765 8.36653ZM64.8 7.624C67.1581 7.624 68.8786 8.20612 70.085 9.25169L71.3949 7.74031C69.7213 6.28988 67.4818 5.624 64.8 5.624V7.624ZM70.0912 9.25702C71.3437 10.3247 72.0738 11.7373 72.2654 13.5681L74.2545 13.3599C74.0141 11.0627 73.0642 9.16331 71.3887 7.73498L70.0912 9.25702ZM73.26 12.464H67.572V14.464H73.26V12.464ZM68.5626 13.3274C68.4329 12.3871 67.9945 11.594 67.2474 11.0167L66.0245 12.5993C66.3334 12.838 66.519 13.1489 66.5813 13.6006L68.5626 13.3274ZM67.2652 11.0308C66.5363 10.4407 65.6205 10.196 64.62 10.196V12.196C65.2994 12.196 65.7276 12.3593 66.0068 12.5852L67.2652 11.0308ZM64.62 10.196C63.7864 10.196 62.9884 10.3597 62.364 10.828L63.564 12.428C63.7076 12.3203 64.0135 12.196 64.62 12.196V10.196ZM62.3974 10.804C61.7325 11.2611 61.388 11.9465 61.388 12.744H63.388C63.388 12.5815 63.4274 12.5229 63.5305 12.452L62.3974 10.804ZM61.388 12.744C61.388 13.2156 61.5142 13.671 61.7916 14.0704C62.0632 14.4615 62.4399 14.7422 62.8552 14.9415L63.7207 13.1385C63.536 13.0498 63.4627 12.9705 63.4343 12.9296C63.4117 12.897 63.388 12.8484 63.388 12.744H61.388ZM62.8689 14.948C63.5926 15.282 64.6371 15.5882 65.951 15.8802L66.3849 13.9278C65.1068 13.6438 64.2314 13.374 63.707 13.132L62.8689 14.948ZM65.9181 15.8723C67.3821 16.2501 68.5463 16.6209 69.4244 16.9812L70.1835 15.1308C69.1897 14.7231 67.9299 14.3259 66.4178 13.9357L65.9181 15.8723ZM69.445 16.9893C70.2071 17.2825 70.8855 17.7742 71.4819 18.494L73.022 17.218C72.2264 16.2578 71.2729 15.5495 70.1629 15.1227L69.445 16.9893ZM71.5021 18.5176C72.0251 19.1103 72.347 19.9629 72.3681 21.1852L74.3678 21.1508C74.3409 19.5891 73.9189 18.2337 73.0018 17.1944L71.5021 18.5176ZM72.368 21.168C72.368 22.1394 72.0949 22.9905 71.5476 23.7528L73.1723 24.9192C73.969 23.8095 74.368 22.5486 74.368 21.168H72.368ZM71.5448 23.7568C71.0249 24.4885 70.2398 25.104 69.1263 25.575L69.9056 27.417C71.2882 26.832 72.399 26.0075 73.1751 24.9152L71.5448 23.7568ZM69.1199 25.5778C68.0457 26.0412 66.7575 26.288 65.232 26.288V28.288C66.9704 28.288 68.5383 28.0068 69.9121 27.4142L69.1199 25.5778ZM100.606 9L99.8652 9.67154L99.8705 9.67731L100.606 9ZM102.694 27V28H103.694V27H102.694ZM96.5742 27H95.5742V28H96.5742V27ZM95.5302 12.96L94.7999 13.6432L94.7999 13.6432L95.5302 12.96ZM89.9142 12.96L90.6445 13.6432L90.6445 13.6432L89.9142 12.96ZM88.8702 27V28H89.8702V27H88.8702ZM82.7142 27H81.7142V28H82.7142V27ZM82.7142 0.36V-0.64H81.7142V0.36H82.7142ZM88.8702 0.36H89.8702V-0.64H88.8702V0.36ZM88.8702 9.612H87.8702V12.7744L89.6884 10.1869L88.8702 9.612ZM91.4262 7.488L90.987 6.58961L90.987 6.58961L91.4262 7.488ZM95.0622 7.696C97.1189 7.696 98.6851 8.36931 99.8652 9.67152L101.347 8.32848C99.7433 6.55869 97.6134 5.696 95.0622 5.696V7.696ZM99.8705 9.67731C101.047 10.9552 101.694 12.7743 101.694 15.264H103.694C103.694 12.4257 102.949 10.0688 101.342 8.32269L99.8705 9.67731ZM101.694 15.264V27H103.694V15.264H101.694ZM102.694 26H96.5742V28H102.694V26ZM97.5742 27V16.092H95.5742V27H97.5742ZM97.5742 16.092C97.5742 14.5774 97.1793 13.259 96.2605 12.2768L94.7999 13.6432C95.2731 14.149 95.5742 14.9186 95.5742 16.092H97.5742ZM96.2605 12.2768C95.3456 11.2989 94.1282 10.844 92.7222 10.844V12.844C93.6682 12.844 94.3227 13.1331 94.7999 13.6432L96.2605 12.2768ZM92.7222 10.844C91.3162 10.844 90.0987 11.2989 89.1839 12.2768L90.6445 13.6432C91.1216 13.1331 91.7762 12.844 92.7222 12.844V10.844ZM89.1839 12.2768C88.2651 13.259 87.8702 14.5774 87.8702 16.092H89.8702C89.8702 14.9186 90.1713 14.149 90.6445 13.6432L89.1839 12.2768ZM87.8702 16.092V27H89.8702V16.092H87.8702ZM88.8702 26H82.7142V28H88.8702V26ZM83.7142 27V0.36H81.7142V27H83.7142ZM82.7142 1.36H88.8702V-0.64H82.7142V1.36ZM87.8702 0.36V9.612H89.8702V0.36H87.8702ZM89.6884 10.1869C90.2052 9.45143 90.9203 8.84842 91.8654 8.38638L90.987 6.58961C89.772 7.18358 88.7831 7.99657 88.052 9.03705L89.6884 10.1869ZM91.8654 8.38638C92.7932 7.93278 93.8523 7.696 95.0622 7.696V5.696C93.5841 5.696 92.2191 5.98722 90.987 6.58961L91.8654 8.38638ZM112.48 11.484L111.588 11.0313L111.583 11.0423L112.48 11.484ZM115.684 7.884L116.214 8.732L116.214 8.732L115.684 7.884ZM123.892 7.488L123.413 8.36593L123.421 8.37035L123.892 7.488ZM126.376 9.756L125.524 10.2801L127.376 13.289V9.756H126.376ZM126.376 6.912V5.912H125.376V6.912H126.376ZM132.532 6.912H133.532V5.912H132.532V6.912ZM132.532 27V28H133.532V27H132.532ZM126.376 27H125.376V28H126.376V27ZM126.376 24.156H127.376V20.743L125.534 23.6163L126.376 24.156ZM123.856 26.424L123.385 25.5416L123.377 25.5461L123.856 26.424ZM115.684 26.028L115.143 26.8692L115.154 26.876L115.684 26.028ZM112.48 22.392L111.58 22.8283L111.584 22.8365L111.588 22.8447L112.48 22.392ZM125.08 13.32L124.353 14.0073L124.363 14.0174L125.08 13.32ZM118.852 13.32L118.135 12.6226L118.135 12.6229L118.852 13.32ZM118.852 20.592L118.116 21.2695L118.126 21.2795L118.135 21.2894L118.852 20.592ZM125.08 20.592L124.363 19.8946L124.354 19.9048L125.08 20.592ZM112.328 16.92C112.328 14.9807 112.688 13.3249 113.377 11.9257L111.583 11.0423C110.736 12.7631 110.328 14.7313 110.328 16.92H112.328ZM113.372 11.9367C114.09 10.5215 115.04 9.46576 116.214 8.732L115.154 7.036C113.64 7.98224 112.454 9.32645 111.588 11.0313L113.372 11.9367ZM116.214 8.732C117.392 7.9959 118.707 7.624 120.184 7.624V5.624C118.349 5.624 116.664 6.09209 115.154 7.036L116.214 8.732ZM120.184 7.624C121.462 7.624 122.528 7.88313 123.413 8.36589L124.371 6.6101C123.144 5.94087 121.738 5.624 120.184 5.624V7.624ZM123.421 8.37035C124.363 8.87258 125.052 9.51189 125.524 10.2801L127.228 9.2319C126.548 8.12811 125.581 7.25541 124.363 6.60565L123.421 8.37035ZM127.376 9.756V6.912H125.376V9.756H127.376ZM126.376 7.912H132.532V5.912H126.376V7.912ZM131.532 6.912V27H133.532V6.912H131.532ZM132.532 26H126.376V28H132.532V26ZM127.376 27V24.156H125.376V27H127.376ZM125.534 23.6163C125.036 24.394 124.33 25.0379 123.385 25.5416L124.327 27.3064C125.542 26.6581 126.516 25.79 127.218 24.6957L125.534 23.6163ZM123.377 25.5461C122.492 26.0289 121.426 26.288 120.148 26.288V28.288C121.702 28.288 123.108 27.9711 124.335 27.3019L123.377 25.5461ZM120.148 26.288C118.698 26.288 117.394 25.9176 116.214 25.18L115.154 26.876C116.662 27.8184 118.334 28.288 120.148 28.288V26.288ZM116.225 25.1868C115.044 24.4278 114.091 23.3564 113.372 21.9393L111.588 22.8447C112.453 24.5476 113.636 25.9002 115.143 26.8692L116.225 25.1868ZM113.38 21.9557C112.688 20.5293 112.328 18.8588 112.328 16.92H110.328C110.328 19.1092 110.736 21.0867 111.58 22.8283L113.38 21.9557ZM127.376 16.956C127.376 15.2254 126.884 13.7397 125.797 12.6226L124.363 14.0174C125.004 14.6763 125.376 15.6146 125.376 16.956H127.376ZM125.806 12.6328C124.777 11.5448 123.482 10.988 121.984 10.988V12.988C122.934 12.988 123.703 13.3192 124.354 14.0072L125.806 12.6328ZM121.984 10.988C120.486 10.988 119.185 11.5438 118.135 12.6226L119.569 14.0174C120.247 13.3202 121.034 12.988 121.984 12.988V10.988ZM118.135 12.6229C117.067 13.7211 116.592 15.1984 116.592 16.92H118.592C118.592 15.5696 118.957 14.6469 119.569 14.0171L118.135 12.6229ZM116.592 16.92C116.592 18.6443 117.068 20.1314 118.116 21.2695L119.588 19.9145C118.956 19.2286 118.592 18.2677 118.592 16.92H116.592ZM118.135 21.2894C119.185 22.3682 120.486 22.924 121.984 22.924V20.924C121.034 20.924 120.247 20.5918 119.569 19.8946L118.135 21.2894ZM121.984 22.924C123.482 22.924 124.777 22.3672 125.806 21.2792L124.354 19.9048C123.703 20.5928 122.934 20.924 121.984 20.924V22.924ZM125.797 21.2894C126.884 20.1723 127.376 18.6866 127.376 16.956H125.376C125.376 18.2974 125.004 19.2357 124.363 19.8946L125.797 21.2894ZM148.722 10.26H147.722V13.6239L149.559 10.8063L148.722 10.26ZM151.422 7.668L151.922 8.53387L151.929 8.52974L151.936 8.52549L151.422 7.668ZM155.022 6.696H156.022V5.696H155.022V6.696ZM155.022 13.212V14.212H156.022V13.212H155.022ZM149.874 14.22L150.518 14.9843L150.525 14.9785L150.532 14.9726L149.874 14.22ZM148.722 27V28H149.722V27H148.722ZM142.566 27H141.566V28H142.566V27ZM142.566 6.912V5.912H141.566V6.912H142.566ZM148.722 6.912H149.722V5.912H148.722V6.912ZM149.559 10.8063C150.198 9.82614 150.986 9.07484 151.922 8.53387L150.921 6.80213C149.698 7.50915 148.685 8.48585 147.884 9.71373L149.559 10.8063ZM151.936 8.52549C152.853 7.97531 153.874 7.696 155.022 7.696V5.696C153.529 5.696 152.15 6.06469 150.907 6.81051L151.936 8.52549ZM154.022 6.696V13.212H156.022V6.696H154.022ZM155.022 12.212H153.33V14.212H155.022V12.212ZM153.33 12.212C151.67 12.212 150.238 12.5722 149.215 13.4674L150.532 14.9726C151.045 14.5238 151.917 14.212 153.33 14.212V12.212ZM149.229 13.4557C148.124 14.3878 147.722 15.9117 147.722 17.676H149.722C149.722 16.1283 150.087 15.3482 150.518 14.9843L149.229 13.4557ZM147.722 17.676V27H149.722V17.676H147.722ZM148.722 26H142.566V28H148.722V26ZM143.566 27V6.912H141.566V27H143.566ZM142.566 7.912H148.722V5.912H142.566V7.912ZM147.722 6.912V10.26H149.722V6.912H147.722ZM182.372 18.432V19.432H183.263L183.365 18.5466L182.372 18.432ZM168.44 18.432V17.432H167.36L167.443 18.5087L168.44 18.432ZM169.628 21.312L168.933 22.0314L168.946 22.0436L168.959 22.0553L169.628 21.312ZM175.46 20.34V19.34H174.821L174.553 19.9199L175.46 20.34ZM182.012 20.34L182.981 20.5867L183.298 19.34H182.012V20.34ZM180.176 23.904L179.411 23.2603L179.402 23.2708L180.176 23.904ZM176.9 26.388L177.314 27.2984L176.9 26.388ZM167.216 26.028L166.736 26.9054L166.736 26.9054L167.216 26.028ZM163.616 22.428L164.491 21.9435L164.491 21.9435L163.616 22.428ZM163.58 11.484L162.705 10.9995L162.7 11.0099L163.58 11.484ZM167.18 7.884L167.66 8.76137L167.66 8.76137L167.18 7.884ZM177.656 7.848L177.181 8.72802L177.181 8.72802L177.656 7.848ZM181.184 11.34L180.31 11.8257L180.316 11.8361L181.184 11.34ZM176.18 15.012V16.012H177.18V15.012H176.18ZM175.1 12.492L175.755 11.7363L175.755 11.7363L175.1 12.492ZM169.772 12.456L169.132 11.6878L169.125 11.6931L169.119 11.6986L169.772 12.456ZM168.476 15.012L167.487 14.8616L167.312 16.012H168.476V15.012ZM181.48 16.632C181.48 17.1664 181.447 17.7281 181.379 18.3174L183.365 18.5466C183.441 17.8879 183.48 17.2496 183.48 16.632H181.48ZM182.372 17.432H168.44V19.432H182.372V17.432ZM167.443 18.5087C167.552 19.9272 168.015 21.1443 168.933 22.0314L170.323 20.5926C169.849 20.1357 169.52 19.4328 169.437 18.3553L167.443 18.5087ZM168.959 22.0553C169.875 22.88 170.995 23.284 172.256 23.284V21.284C171.453 21.284 170.821 21.04 170.297 20.5687L168.959 22.0553ZM172.256 23.284C173.165 23.284 174.005 23.0914 174.728 22.6529C175.455 22.2116 175.996 21.5618 176.367 20.7601L174.553 19.9199C174.324 20.4142 174.031 20.7364 173.69 20.9431C173.345 21.1526 172.883 21.284 172.256 21.284V23.284ZM175.46 21.34H182.012V19.34H175.46V21.34ZM181.043 20.0933C180.745 21.2654 180.203 22.3181 179.411 23.2604L180.941 24.5476C181.925 23.3779 182.607 22.0546 182.981 20.5867L181.043 20.0933ZM179.402 23.2708C178.641 24.2006 177.675 24.9371 176.486 25.4776L177.314 27.2984C178.765 26.6389 179.983 25.7194 180.95 24.5372L179.402 23.2708ZM176.486 25.4776C175.312 26.0116 173.979 26.288 172.472 26.288V28.288C174.229 28.288 175.848 27.9644 177.314 27.2984L176.486 25.4776ZM172.472 26.288C170.651 26.288 169.067 25.9006 167.696 25.1506L166.736 26.9054C168.437 27.8354 170.357 28.288 172.472 28.288V26.288ZM167.696 25.1506C166.329 24.4033 165.265 23.341 164.491 21.9435L162.741 22.9125C163.695 24.635 165.031 25.9727 166.736 26.9054L167.696 25.1506ZM164.491 21.9435C163.722 20.5553 163.32 18.9036 163.32 16.956H161.32C161.32 19.1844 161.782 21.1807 162.741 22.9125L164.491 21.9435ZM163.32 16.956C163.32 15.0039 163.712 13.3484 164.46 11.9581L162.7 11.0099C161.768 12.7396 161.32 14.7321 161.32 16.956H163.32ZM164.455 11.9685C165.229 10.571 166.293 9.5087 167.66 8.76137L166.7 7.00663C164.995 7.9393 163.659 9.27704 162.705 10.9995L164.455 11.9685ZM167.66 8.76137C169.029 8.01236 170.624 7.624 172.472 7.624V5.624C170.336 5.624 168.403 6.07564 166.7 7.00663L167.66 8.76137ZM172.472 7.624C174.272 7.624 175.833 8.00063 177.181 8.72802L178.131 6.96798C176.455 6.06337 174.56 5.624 172.472 5.624V7.624ZM177.181 8.72802C178.524 9.45272 179.562 10.4793 180.31 11.8256L182.058 10.8544C181.126 9.17668 179.812 7.87528 178.131 6.96798L177.181 8.72802ZM180.316 11.8361C181.081 13.1747 181.48 14.7623 181.48 16.632H183.48C183.48 14.4697 183.015 12.5293 182.052 10.8439L180.316 11.8361ZM177.18 15.012C177.18 13.7013 176.719 12.5722 175.755 11.7363L174.445 13.2477C174.921 13.6598 175.18 14.2107 175.18 15.012H177.18ZM175.755 11.7363C174.829 10.9337 173.686 10.556 172.4 10.556V12.556C173.274 12.556 173.931 12.8023 174.445 13.2477L175.755 11.7363ZM172.4 10.556C171.159 10.556 170.05 10.9226 169.132 11.6878L170.412 13.2242C170.934 12.7894 171.577 12.556 172.4 12.556V10.556ZM169.119 11.6986C168.206 12.4861 167.683 13.5746 167.487 14.8616L169.465 15.1624C169.605 14.2414 169.946 13.6259 170.425 13.2134L169.119 11.6986ZM168.476 16.012H176.18V14.012H168.476V16.012Z" fill="#EE9837"/>
</svg>
