<svg width="22" height="24" viewBox="0 0 22 24" fill="none" xmlns="http://www.w3.org/2000/svg">
<path d="M2.80865 1.69603H14.0432C14.4157 1.69603 14.7729 1.8429 15.0362 2.10432C15.2996 2.36575 15.4476 2.72032 15.4476 3.09003V10.0907C15.9292 10.1339 16.3997 10.2217 16.8519 10.3486V3.09003C16.8519 2.35061 16.556 1.64147 16.0293 1.11862C15.5025 0.595767 14.7881 0.302032 14.0432 0.302032H2.80865C2.06375 0.302032 1.34936 0.595767 0.822634 1.11862C0.29591 1.64147 0 2.35061 0 3.09003V19.818C0 20.5574 0.29591 21.2666 0.822634 21.7894C1.34936 22.3123 2.06375 22.606 2.80865 22.606H8.78686C8.42918 22.176 8.11981 21.7086 7.86422 21.212H2.80865C2.4362 21.212 2.079 21.0651 1.81564 20.8037C1.55228 20.5423 1.40432 20.1877 1.40432 19.818H7.31231C7.18237 19.3623 7.0954 18.8957 7.05252 18.424H1.40432V3.09003C1.40432 2.72032 1.55228 2.36575 1.81564 2.10432C2.079 1.8429 2.4362 1.69603 2.80865 1.69603Z" fill="#C0C0C0"/>
<path d="M4.21298 3.09003C3.84053 3.09003 3.48333 3.23689 3.21997 3.49832C2.95661 3.75975 2.80865 4.11431 2.80865 4.48402V5.87802C2.80865 6.24773 2.95661 6.6023 3.21997 6.86373C3.48333 7.12515 3.84053 7.27202 4.21298 7.27202H12.6389C13.0114 7.27202 13.3686 7.12515 13.6319 6.86373C13.8953 6.6023 14.0432 6.24773 14.0432 5.87802V4.48402C14.0432 4.11431 13.8953 3.75975 13.6319 3.49832C13.3686 3.23689 13.0114 3.09003 12.6389 3.09003H4.21298ZM12.6389 4.48402V5.87802H4.21298V4.48402H12.6389Z" fill="#C0C0C0"/>
<path d="M21.0648 17.727C21.0648 19.3907 20.3991 20.9863 19.2139 22.1627C18.0288 23.3391 16.4214 24 14.7454 24C13.0694 24 11.462 23.3391 10.2769 22.1627C9.09173 20.9863 8.42593 19.3907 8.42593 17.727C8.42593 16.0633 9.09173 14.4677 10.2769 13.2913C11.462 12.1149 13.0694 11.454 14.7454 11.454C16.4214 11.454 18.0288 12.1149 19.2139 13.2913C20.3991 14.4677 21.0648 16.0633 21.0648 17.727ZM14.0713 14.9864C13.9803 14.9243 13.8744 14.8869 13.7644 14.8779C13.6543 14.8688 13.5437 14.8885 13.4436 14.9348C13.3619 14.9705 13.2879 15.0217 13.2259 15.0854C13.0951 15.2184 13.022 15.3971 13.0223 15.583V19.8696C13.0214 19.962 13.039 20.0536 13.0739 20.1393C13.1089 20.2249 13.1605 20.3029 13.2259 20.3686C13.29 20.4319 13.3646 20.4838 13.4464 20.522C13.5889 20.5868 13.7505 20.5967 13.9 20.5498C13.9647 20.5287 14.0262 20.4987 14.0826 20.4606L17.3069 18.2762C17.405 18.2121 17.484 18.123 17.5358 18.0183C17.5891 17.9129 17.6166 17.7964 17.6158 17.6784C17.6151 17.5604 17.5862 17.4443 17.5316 17.3395C17.4767 17.2363 17.3959 17.1489 17.297 17.0858L14.0713 14.9864Z" fill="#C0C0C0"/>
</svg>
