<svg width="40" height="47" viewBox="0 0 40 47" fill="none" xmlns="http://www.w3.org/2000/svg">
<g filter="url(#filter0_i_1784_8549)">
<path fill-rule="evenodd" clip-rule="evenodd" d="M30.8951 35.8891C35.9643 32.3224 39.2787 26.4119 39.2787 19.7239C39.2787 8.8307 30.4859 0 19.6394 0C8.79284 0 0 8.8307 0 19.7239C0 19.8219 0.000711829 19.9198 0.00213058 20.0174C0.000714012 20.0593 0 20.1014 0 20.1437V42.0591C0 43.3326 0.648935 44.4539 1.63282 45.1076C2.24906 45.6968 3.09591 46.077 4.1294 46.077H35.1493C38.9062 46.077 40.1968 41.0531 36.9088 39.2277L30.8951 35.8891ZM10.9108 20.1437V20.4996C11.3018 24.9964 15.0604 28.5239 19.6394 28.5239C24.4786 28.5239 28.4015 24.584 28.4015 19.724C28.4015 14.8639 24.4786 10.9241 19.6394 10.9241C14.8255 10.9241 10.9183 14.8228 10.8775 19.6477C10.8994 19.8099 10.9108 19.9754 10.9108 20.1437Z" fill="#DFEFB9"/>
</g>
<defs>
<filter id="filter0_i_1784_8549" x="0" y="0" width="39.2787" height="50.077" filterUnits="userSpaceOnUse" color-interpolation-filters="sRGB">
<feFlood flood-opacity="0" result="BackgroundImageFix"/>
<feBlend mode="normal" in="SourceGraphic" in2="BackgroundImageFix" result="shape"/>
<feColorMatrix in="SourceAlpha" type="matrix" values="0 0 0 0 0 0 0 0 0 0 0 0 0 0 0 0 0 0 127 0" result="hardAlpha"/>
<feOffset dy="4"/>
<feGaussianBlur stdDeviation="2"/>
<feComposite in2="hardAlpha" operator="arithmetic" k2="-1" k3="1"/>
<feColorMatrix type="matrix" values="0 0 0 0 0 0 0 0 0 0 0 0 0 0 0 0 0 0 0.25 0"/>
<feBlend mode="normal" in2="shape" result="effect1_innerShadow_1784_8549"/>
</filter>
</defs>
</svg>
