<svg width="24" height="19" viewBox="0 0 24 19" fill="none" xmlns="http://www.w3.org/2000/svg">
<path d="M20.7259 0.93512C22.5344 0.93512 24 2.27581 24 3.93028V15.0552C24 16.7096 22.5344 18.0503 20.7259 18.0503H3.57606C2.70773 18.0503 1.87496 17.7348 1.26095 17.1731C0.646947 16.6114 0.302002 15.8495 0.302002 15.0552V3.93028C0.302002 2.27581 1.76753 0.93512 3.57606 0.93512H20.7259ZM22.4409 6.26993L12.5264 11.2584C12.4244 11.3097 12.3111 11.3395 12.1949 11.3455C12.0787 11.3516 11.9625 11.3337 11.8548 11.2932L11.7756 11.259L1.86108 6.26936V15.0552C1.86108 15.4713 2.04176 15.8703 2.36339 16.1645C2.68501 16.4588 3.12122 16.6241 3.57606 16.6241H20.7259C21.1808 16.6241 21.617 16.4588 21.9386 16.1645C22.2602 15.8703 22.4409 15.4713 22.4409 15.0552V6.26993ZM20.7259 2.36139H3.57606C3.12122 2.36139 2.68501 2.52668 2.36339 2.8209C2.04176 3.11513 1.86108 3.51418 1.86108 3.93028V4.64284L12.151 9.81962L22.4409 4.64227V3.93028C22.4409 3.51418 22.2602 3.11513 21.9386 2.8209C21.617 2.52668 21.1808 2.36139 20.7259 2.36139Z" fill="#C0C0C0"/>
</svg>
