<svg width="171" height="236" viewBox="0 0 171 236" fill="none" xmlns="http://www.w3.org/2000/svg">
<g filter="url(#filter0_i_846:2109)">
<path fill-rule="evenodd" clip-rule="evenodd" d="M130.704 142.538C150.836 128.372 164 104.898 164 78.3358C164 35.0721 129.078 0 86 0C42.9218 0 8 35.0721 8 78.3358C8 78.7251 8.00283 79.1137 8.00846 79.5016C8.00284 79.668 8 79.8351 8 80.0029V167.043C8 172.101 10.5773 176.554 14.4849 179.15C16.9324 181.49 20.2958 183 24.4004 183H147.6C162.521 183 167.646 163.047 154.588 155.797L130.704 142.538ZM51.3333 80.0029V81.4166C52.8863 99.276 67.8141 113.286 86 113.286C105.22 113.286 120.8 97.6383 120.8 78.336C120.8 59.0338 105.22 43.3862 86 43.3862C66.8811 43.3862 51.3633 58.8703 51.2013 78.0331C51.2884 78.6772 51.3333 79.3348 51.3333 80.0029Z" fill="#D67202"/>
</g>
<g filter="url(#filter1_i_846:2109)">
<path d="M5.97817 216.258C6.74679 215.044 7.74315 214.092 8.96725 213.402C10.2198 212.712 11.6432 212.367 13.2374 212.367V218.451H11.6574C9.77858 218.451 8.3552 218.879 7.38731 219.734C6.44788 220.59 5.97817 222.08 5.97817 224.204V235.628H0V212.698H5.97817V216.258Z" fill="#D67202"/>
<path d="M40.5361 223.666C40.5361 224.494 40.4792 225.239 40.3653 225.901H23.0713C23.2137 227.557 23.8115 228.854 24.8648 229.792C25.9181 230.73 27.2133 231.199 28.7506 231.199C30.9711 231.199 32.551 230.275 33.4904 228.426H39.9383C39.2551 230.633 37.9456 232.454 36.0098 233.889C34.074 235.296 31.697 236 28.8787 236C26.6013 236 24.5516 235.517 22.7297 234.551C20.9363 233.558 19.5271 232.165 18.5023 230.371C17.5059 228.578 17.0078 226.508 17.0078 224.163C17.0078 221.79 17.5059 219.707 18.5023 217.913C19.4987 216.12 20.8936 214.74 22.687 213.774C24.4805 212.809 26.5444 212.326 28.8787 212.326C31.1276 212.326 33.1346 212.795 34.8996 213.733C36.693 214.671 38.0737 216.009 39.0416 217.748C40.0379 219.458 40.5361 221.431 40.5361 223.666ZM34.3445 222.011C34.316 220.521 33.7609 219.334 32.6791 218.451C31.5973 217.541 30.2736 217.085 28.7079 217.085C27.2276 217.085 25.975 217.527 24.9502 218.41C23.9538 219.265 23.3418 220.466 23.114 222.011H34.3445Z" fill="#D67202"/>
<path d="M55.2334 236C53.2976 236 51.561 235.669 50.0238 235.007C48.4866 234.317 47.2625 233.393 46.3515 232.234C45.469 231.075 44.9851 229.792 44.8997 228.385H50.9205C51.0344 229.267 51.4756 229.999 52.2443 230.578C53.0414 231.158 54.0235 231.447 55.1907 231.447C56.3293 231.447 57.2118 231.227 57.8381 230.785C58.4929 230.344 58.8203 229.778 58.8203 229.088C58.8203 228.343 58.4217 227.791 57.6246 227.433C56.856 227.046 55.6177 226.632 53.9096 226.191C52.1446 225.777 50.6928 225.349 49.5541 224.908C48.4439 224.466 47.476 223.79 46.6504 222.88C45.8533 221.969 45.4548 220.741 45.4548 219.196C45.4548 217.927 45.8249 216.768 46.565 215.72C47.3336 214.671 48.4154 213.843 49.8103 213.236C51.2337 212.629 52.899 212.326 54.8063 212.326C57.6246 212.326 59.8736 213.016 61.5531 214.395C63.2327 215.747 64.1579 217.582 64.3287 219.9H58.6067C58.5213 218.989 58.1228 218.272 57.4111 217.748C56.7279 217.196 55.8027 216.92 54.6355 216.92C53.5538 216.92 52.714 217.113 52.1162 217.499C51.5468 217.886 51.2621 218.424 51.2621 219.113C51.2621 219.886 51.6607 220.479 52.4578 220.893C53.2549 221.279 54.4932 221.68 56.1728 222.093C57.8808 222.507 59.29 222.935 60.4002 223.377C61.5104 223.818 62.4641 224.508 63.2612 225.446C64.0867 226.356 64.5137 227.571 64.5422 229.088C64.5422 230.413 64.1579 231.599 63.3893 232.648C62.6491 233.696 61.5674 234.524 60.144 235.131C58.7491 235.71 57.1122 236 55.2334 236Z" fill="#D67202"/>
<path d="M84.0533 212.367C85.8468 212.367 87.441 212.753 88.8359 213.526C90.2308 214.271 91.3125 215.389 92.0812 216.879C92.8783 218.341 93.2768 220.107 93.2768 222.176V235.628H87.2986V222.963C87.2986 221.142 86.8289 219.748 85.8895 218.782C84.9501 217.789 83.669 217.292 82.0464 217.292C80.3953 217.292 79.0858 217.789 78.1179 218.782C77.1784 219.748 76.7087 221.142 76.7087 222.963V235.628H70.7306V205H76.7087V215.554C77.4773 214.561 78.5022 213.788 79.7832 213.236C81.0643 212.657 82.4876 212.367 84.0533 212.367Z" fill="#D67202"/>
<path d="M98.7055 224.08C98.7055 221.762 99.1752 219.707 100.115 217.913C101.083 216.12 102.378 214.74 104 213.774C105.652 212.809 107.488 212.326 109.509 212.326C111.274 212.326 112.811 212.671 114.121 213.36C115.459 214.05 116.526 214.919 117.323 215.968V212.698H123.344V235.628H117.323V232.275C116.555 233.351 115.487 234.248 114.121 234.965C112.783 235.655 111.231 236 109.466 236C107.474 236 105.652 235.503 104 234.51C102.378 233.517 101.083 232.123 100.115 230.33C99.1752 228.509 98.7055 226.425 98.7055 224.08ZM117.323 224.163C117.323 222.756 117.039 221.555 116.469 220.562C115.9 219.541 115.131 218.769 114.163 218.244C113.195 217.692 112.156 217.417 111.046 217.417C109.936 217.417 108.911 217.679 107.972 218.203C107.032 218.727 106.264 219.5 105.666 220.521C105.096 221.514 104.812 222.7 104.812 224.08C104.812 225.46 105.096 226.674 105.666 227.722C106.264 228.743 107.032 229.53 107.972 230.081C108.94 230.633 109.964 230.909 111.046 230.909C112.156 230.909 113.195 230.647 114.163 230.123C115.131 229.571 115.9 228.798 116.469 227.805C117.039 226.784 117.323 225.57 117.323 224.163Z" fill="#D67202"/>
<path d="M136.442 216.258C137.211 215.044 138.207 214.092 139.431 213.402C140.684 212.712 142.107 212.367 143.701 212.367V218.451H142.121C140.242 218.451 138.819 218.879 137.851 219.734C136.912 220.59 136.442 222.08 136.442 224.204V235.628H130.464V212.698H136.442V216.258Z" fill="#D67202"/>
<path d="M171 223.666C171 224.494 170.943 225.239 170.829 225.901H153.535C153.678 227.557 154.275 228.854 155.329 229.792C156.382 230.73 157.677 231.199 159.214 231.199C161.435 231.199 163.015 230.275 163.954 228.426H170.402C169.719 230.633 168.409 232.454 166.474 233.889C164.538 235.296 162.161 236 159.343 236C157.065 236 155.016 235.517 153.194 234.551C151.4 233.558 149.991 232.165 148.966 230.371C147.97 228.578 147.472 226.508 147.472 224.163C147.472 221.79 147.97 219.707 148.966 217.913C149.963 216.12 151.357 214.74 153.151 213.774C154.944 212.809 157.008 212.326 159.343 212.326C161.592 212.326 163.598 212.795 165.363 213.733C167.157 214.671 168.538 216.009 169.505 217.748C170.502 219.458 171 221.431 171 223.666ZM164.808 222.011C164.78 220.521 164.225 219.334 163.143 218.451C162.061 217.541 160.737 217.085 159.172 217.085C157.691 217.085 156.439 217.527 155.414 218.41C154.418 219.265 153.806 220.466 153.578 222.011H164.808Z" fill="#D67202"/>
</g>
<defs>
<filter id="filter0_i_846:2109" x="8" y="0" width="156" height="187" filterUnits="userSpaceOnUse" color-interpolation-filters="sRGB">
<feFlood flood-opacity="0" result="BackgroundImageFix"/>
<feBlend mode="normal" in="SourceGraphic" in2="BackgroundImageFix" result="shape"/>
<feColorMatrix in="SourceAlpha" type="matrix" values="0 0 0 0 0 0 0 0 0 0 0 0 0 0 0 0 0 0 127 0" result="hardAlpha"/>
<feOffset dy="4"/>
<feGaussianBlur stdDeviation="2"/>
<feComposite in2="hardAlpha" operator="arithmetic" k2="-1" k3="1"/>
<feColorMatrix type="matrix" values="0 0 0 0 0 0 0 0 0 0 0 0 0 0 0 0 0 0 0.25 0"/>
<feBlend mode="normal" in2="shape" result="effect1_innerShadow_846:2109"/>
</filter>
<filter id="filter1_i_846:2109" x="0" y="205" width="171" height="35" filterUnits="userSpaceOnUse" color-interpolation-filters="sRGB">
<feFlood flood-opacity="0" result="BackgroundImageFix"/>
<feBlend mode="normal" in="SourceGraphic" in2="BackgroundImageFix" result="shape"/>
<feColorMatrix in="SourceAlpha" type="matrix" values="0 0 0 0 0 0 0 0 0 0 0 0 0 0 0 0 0 0 127 0" result="hardAlpha"/>
<feOffset dy="4"/>
<feGaussianBlur stdDeviation="2"/>
<feComposite in2="hardAlpha" operator="arithmetic" k2="-1" k3="1"/>
<feColorMatrix type="matrix" values="0 0 0 0 0 0 0 0 0 0 0 0 0 0 0 0 0 0 0.25 0"/>
<feBlend mode="normal" in2="shape" result="effect1_innerShadow_846:2109"/>
</filter>
</defs>
</svg>
