<svg width="758" height="877" viewBox="0 0 758 877" fill="none" xmlns="http://www.w3.org/2000/svg">
<g filter="url(#filter0_d_2306_10098)">
<path fill-rule="evenodd" clip-rule="evenodd" d="M555.274 673.171C643.756 610.914 701.609 507.746 701.609 391.008C701.609 200.867 548.13 46.7271 358.805 46.7271C169.479 46.7271 16 200.867 16 391.008C16 392.718 16.0124 394.426 16.0372 396.131C16.0125 396.863 16 397.597 16 398.334V780.868C16 803.097 27.3271 822.669 44.5008 834.079C55.2573 844.364 70.039 851 88.0786 851H629.53C695.108 851 717.635 763.308 660.242 731.446L555.274 673.171ZM206.447 398.334V404.548C213.272 483.039 278.879 544.611 358.805 544.611C443.273 544.611 511.748 475.841 511.748 391.008C511.748 306.176 443.273 237.406 358.805 237.406C274.779 237.406 206.579 305.458 205.867 389.677C206.249 392.508 206.447 395.398 206.447 398.334Z" fill="white"/>
</g>
<path fill-rule="evenodd" clip-rule="evenodd" d="M555.274 673.172C643.757 610.915 373.827 512.87 373.827 396.132C373.827 205.991 519.516 38 330.19 38C140.864 38 16 200.867 16 391.008C16 392.719 16.0124 394.427 16.0372 396.132C16.0125 396.863 16 397.597 16 398.335V780.869C16 803.097 27.3271 822.669 44.5008 834.08C55.2573 844.364 70.0391 851 88.0786 851H629.53C695.108 851 717.635 763.308 660.242 731.446L555.274 673.172ZM206.447 398.335V404.548C213.272 483.039 278.879 544.611 358.805 544.611C443.273 544.611 511.748 475.841 511.748 391.009C511.748 306.177 443.273 237.407 358.805 237.407C274.779 237.407 206.579 305.458 205.867 389.678C206.249 392.508 206.447 395.398 206.447 398.335Z" fill="#EE9837"/>
<defs>
<filter id="filter0_d_2306_10098" x="0" y="0.727051" width="757.609" height="876.273" filterUnits="userSpaceOnUse" color-interpolation-filters="sRGB">
<feFlood flood-opacity="0" result="BackgroundImageFix"/>
<feColorMatrix in="SourceAlpha" type="matrix" values="0 0 0 0 0 0 0 0 0 0 0 0 0 0 0 0 0 0 127 0" result="hardAlpha"/>
<feOffset dx="20" dy="-10"/>
<feGaussianBlur stdDeviation="18"/>
<feComposite in2="hardAlpha" operator="out"/>
<feColorMatrix type="matrix" values="0 0 0 0 0.933333 0 0 0 0 0.596078 0 0 0 0 0.215686 0 0 0 0.67 0"/>
<feBlend mode="normal" in2="BackgroundImageFix" result="effect1_dropShadow_2306_10098"/>
<feBlend mode="normal" in="SourceGraphic" in2="effect1_dropShadow_2306_10098" result="shape"/>
</filter>
</defs>
</svg>
