<svg width="12" height="11" viewBox="0 0 12 11" fill="none" xmlns="http://www.w3.org/2000/svg">
<g clip-path="url(#clip0_1742_10202)">
<path d="M2.72312 10.9995V3.57785H0.15079V10.9995H2.72312ZM1.43729 2.56394C2.33431 2.56394 2.89266 1.99404 2.89266 1.28185C2.87594 0.553608 2.33434 -0.000473022 1.45431 -0.000473022C0.574419 -0.000473022 -0.000976562 0.553619 -0.000976562 1.28185C-0.000976562 1.99407 0.557236 2.56394 1.4205 2.56394H1.43721H1.43729ZM4.1469 10.9995H6.71924V6.8549C6.71924 6.63309 6.73595 6.4115 6.80388 6.25294C6.98984 5.80976 7.41309 5.35075 8.12367 5.35075C9.0545 5.35075 9.42687 6.03134 9.42687 7.02904V10.9995H11.999V6.74396C11.999 4.46431 10.73 3.40361 9.03755 3.40361C7.64988 3.40361 7.0406 4.14745 6.70212 4.65408H6.71929V3.57769H4.14696C4.18072 4.2741 4.14696 10.9994 4.14696 10.9994L4.1469 10.9995Z" fill="#848484"/>
</g>
<defs>
<clipPath id="clip0_1742_10202">
<rect width="12" height="11" fill="white"/>
</clipPath>
</defs>
</svg>
